<svg xmlns="http://www.w3.org/2000/svg" viewBox="0 0 278.66 109.26"><defs><style>.cls-1,.cls-3{fill:#02337a;}.cls-2{fill:#1c71d6;}.cls-3{opacity:0.75;}.cls-4{fill:#00ade9;opacity:0.67;}.cls-5{fill:#1c3f74;opacity:0.74;}</style></defs><title>Asset 1</title><g id="Layer_2" data-name="Layer 2"><g id="Layer_1-2" data-name="Layer 1"><path class="cls-1" d="M98.49,7C89.76,1.69,76.43,1.85,72,12.73c-4.83,11.83,7.17,20.11,16.18,24.53,5.58,2.74,12.78,6,14.12,12.82,1.51,7.63-4.56,14.12-11.68,15.58C77.05,68.44,58.11,52,66.67,38.16c2-3.29-3.16-6.31-5.18-3-14.57,23.63,26.7,51,43.27,28.39,7.93-10.83,2-22.8-8.48-28.83C90,31.08,81.49,28.87,78,21.89A8.41,8.41,0,0,1,82.91,10c4.31-1.6,8.82-.09,12.55,2.19,3.31,2,6.33-3.17,3-5.18Z"/><path class="cls-1" d="M111.54,30.34A156.5,156.5,0,0,0,112,53.46c.48,4.23,1.81,8.88,6,10.82,10.69,5,19.69-10.17,24-17.46,2-3.33-3.22-6.35-5.18-3-2.22,3.75-13.33,22.1-18.11,12.56-1.64-3.27-1.13-8.57-1.25-12.17-.14-4.62-.1-9.23.07-13.85.14-3.86-5.87-3.85-6,0Z"/><path class="cls-1" d="M165.63,34.09c-2.69-8-11.77-10.27-18.76-6.15-7.89,4.66-11.46,14.66-10,23.43,1.31,7.83,8,15.55,16.24,10.33s12.24-17.56,13.49-26.61l-5.89-.8c-1.28,18.18,4.55,37.71-1.17,55.42-2.52,7.81-8.67,15.64-17.87,13.16S128.47,91,126,82.83c-1.12-3.68-6.92-2.11-5.79,1.6,2.82,9.26,7.32,18.72,16.59,23,8.63,4,17.75,1.33,23.44-6.08,14.15-18.4,5-45.94,6.48-67.05.23-3.32-5.43-4.16-5.9-.8a44.1,44.1,0,0,1-4.57,14.83,28.21,28.21,0,0,1-5,7.24c-3.32,3.14-6.64.75-7.89-2.88a17.72,17.72,0,0,1,1.95-14.93c2.81-4.36,11.94-9.82,14.56-2.07,1.22,3.64,7,2.08,5.78-1.59Z"/><path class="cls-1" d="M170.56,33.16a170.14,170.14,0,0,0-1.31,27c.09,3.22,5.35,4.28,5.89.8,1.23-8,2.76-16.73,8-23.22,1.59-2,4.57-4.28,5.88-.79.61,1.64.41,4.14.52,5.85a129,129,0,0,1,0,14.45h6c.32-7.4,2.4-16.55,7.72-22.11,1.27-1.34,3.55-3.08,5.59-2.32,2.25.85,2.27,4,2.54,6,.56,4.12.33,8.13.35,12.27,0,5.23,1.31,11.18,6.61,13.53,5.46,2.43,10.3-1.41,13.85-5.21,2.64-2.82-1.6-7.07-4.24-4.25-1.91,2-4.66,5.61-8,3.43-1.7-1.1-2-3.91-2.15-5.73-.31-4.2.24-8.41-.18-12.63-.58-5.86-1.8-12.71-8.86-13.43C195,25.33,190,47.38,189.53,57.23c-.17,3.87,5.8,3.85,6,0,.35-6.7,3.18-32-9.82-28.84-5.29,1.28-9.15,7.57-11.31,12.16-2.79,5.93-4.06,12.36-5.05,18.8l5.9.79a170.14,170.14,0,0,1,1.31-27c.49-3.82-5.51-3.79-6,0Z"/><path class="cls-1" d="M255.2,34.87c-3.6-6.81-12.7-7.51-18.5-3.09-6.82,5.19-11.56,17.24-9,25.57s11.83,11.09,18.14,5.15c7.23-6.81,9.65-19.07,10.25-28.53h-6c-.19,8.58.07,18,5.45,25.19,4.42,5.88,10.9,9,18.21,7.92,3.81-.55,2.19-6.34-1.59-5.79C257.49,63.42,255.87,43.81,256.09,34c.09-3.89-5.75-3.83-6,0a51.39,51.39,0,0,1-3.41,15.71c-1.09,2.75-2.48,5.92-4.57,8.09-2.84,2.95-6.92,2.26-8.46-1.72-1.88-4.88.75-11.63,3.42-15.82s9.74-8.41,13-2.33c1.81,3.41,7,.38,5.18-3Z"/><path d="M187.94,86.7a6.92,6.92,0,0,1-2.12,4.72,7.16,7.16,0,0,1-5,1.65A6.67,6.67,0,0,1,177.08,92a7,7,0,0,1-2.53-3,10.83,10.83,0,0,1-.92-4.52V81.35a11.16,11.16,0,0,1,.89-4.55,7,7,0,0,1,2.54-3.1,6.68,6.68,0,0,1,3.78-1.09,7.2,7.2,0,0,1,5,1.64,6.85,6.85,0,0,1,2.13,4.7h-.74a6.39,6.39,0,0,0-1.91-4.18,6.47,6.47,0,0,0-4.45-1.43,5.77,5.77,0,0,0-4.69,2.19,9,9,0,0,0-1.78,5.87v2.93a10.31,10.31,0,0,0,.79,4.17,6.41,6.41,0,0,0,2.28,2.82,5.85,5.85,0,0,0,3.4,1,6.56,6.56,0,0,0,4.47-1.41,6.17,6.17,0,0,0,1.89-4.22Z"/><path d="M203,86.85h-9.75l-2.22,6h-.8l7.45-19.92h.9l7.46,19.92h-.81Zm-9.48-.74h9.21l-4.6-12.34Z"/><path d="M208.69,73.37a.77.77,0,0,1,.22-.54A.76.76,0,0,1,210,73.91a.8.8,0,0,1-1.08,0A.77.77,0,0,1,208.69,73.37Zm1.13,19.43h-.74V78h.74Z"/><path d="M233,92.8H221.12v-.74l6.8-7.84a20.4,20.4,0,0,0,2.48-3.47,6.05,6.05,0,0,0,.81-2.79,4.45,4.45,0,0,0-1.27-3.4,5.54,5.54,0,0,0-6.13-.54,4.78,4.78,0,0,0-1.8,1.85,5.42,5.42,0,0,0-.65,2.63h-.74a6.23,6.23,0,0,1,.74-3,5.55,5.55,0,0,1,2-2.14,5.68,5.68,0,0,1,3-.78A5.75,5.75,0,0,1,230.49,74,5.19,5.19,0,0,1,232,78c0,1.55-.88,3.4-2.62,5.56L228.11,85l-6,7H233Z"/><path d="M248,84.67a10.61,10.61,0,0,1-1.56,6.21,5.47,5.47,0,0,1-8.77,0,10.58,10.58,0,0,1-1.59-6.24V81a10.55,10.55,0,0,1,1.57-6.19,5.44,5.44,0,0,1,8.78,0A10.74,10.74,0,0,1,248,81.06ZM247.25,81a10.1,10.1,0,0,0-1.36-5.65,4.4,4.4,0,0,0-3.87-2,4.35,4.35,0,0,0-3.86,2,10.28,10.28,0,0,0-1.35,5.71v3.58a10,10,0,0,0,1.38,5.65,4.42,4.42,0,0,0,3.86,2,4.35,4.35,0,0,0,3.84-2,10.23,10.23,0,0,0,1.36-5.72Z"/><path d="M263.71,92.8H251.79v-.74l6.8-7.84a20.4,20.4,0,0,0,2.48-3.47,6.08,6.08,0,0,0,.82-2.79,4.46,4.46,0,0,0-1.28-3.4,5.54,5.54,0,0,0-6.13-.54,4.69,4.69,0,0,0-1.79,1.85A5.31,5.31,0,0,0,252,78.5h-.74a6.11,6.11,0,0,1,.74-3,5.41,5.41,0,0,1,2.05-2.14,5.62,5.62,0,0,1,2.94-.78A5.73,5.73,0,0,1,261.16,74,5.15,5.15,0,0,1,262.64,78q0,2.33-2.61,5.56L258.78,85l-6,7h10.95Z"/><path d="M278.66,84.67a10.61,10.61,0,0,1-1.56,6.21,5.47,5.47,0,0,1-8.77,0,10.58,10.58,0,0,1-1.59-6.24V81a10.55,10.55,0,0,1,1.57-6.19,5.44,5.44,0,0,1,8.78,0,10.66,10.66,0,0,1,1.57,6.24ZM277.92,81a10,10,0,0,0-1.36-5.65,4.69,4.69,0,0,0-7.73,0,10.28,10.28,0,0,0-1.35,5.71v3.58a10,10,0,0,0,1.38,5.65,4.68,4.68,0,0,0,7.71,0,10.32,10.32,0,0,0,1.35-5.72Z"/><path class="cls-1" d="M117.89,21.8l3.2-4.11c1-1.24,1.3-3.06,0-4.24-1.07-1-3.21-1.33-4.24,0l-3.2,4.11c-1,1.23-1.3,3.05,0,4.24,1.07,1,3.21,1.32,4.24,0Z"/></g><g id="Layer_2-2" data-name="Layer 2"><path class="cls-2" d="M49,.44s6.11,0,6.11,6-6.11,7-6.11,7H8.21s-7.14,0-7.14-5,2-7,6.12-8S49,.44,49,.44Z"/><path class="cls-3" d="M49.07,61.44s6,0,6,6-6,7-6,7h-40s-7,0-7-5,2-7,6-8S49.07,61.44,49.07,61.44Z"/><path class="cls-4" d="M12,72.93s-3.28,2.5-6.3.52S1,70,1.67,66.49s21.69-33.2,21.69-33.2,2.9-3.41,6.44-2.76,5.12,4.34,5.12,4.34a6.47,6.47,0,0,1-.79,5.78C32.15,43.67,12,72.93,12,72.93Z"/><path class="cls-5" d="M.27,9.45S-1,5.52,1.9,3.34,6.71.05,9.83,1.86,33.77,33.48,33.77,33.48s2.24,3.88.42,7-5.81,3.36-5.81,3.36a6.46,6.46,0,0,1-5.17-2.7C21,38.26.27,9.45.27,9.45Z"/></g></g></svg>